<svg version="1.1" xmlns="http://www.w3.org/2000/svg" xmlns:xlink="http://www.w3.org/1999/xlink" x="0px" y="0px" viewBox="0 0 404 94" style="enable-background:new 0 0 404 94;" xml:space="preserve"><g><path d="M255.4,57.8v14.5h18.5c4.1,0,7.4-3.2,7.4-7.2c0-4-3.3-7.2-7.4-7.2H255.4z M299.8,28.9c0,5.9-1.8,11.3-4.8,15.8      c5.3,5.2,8.5,12.4,8.5,20.3c0,16-13.3,28.9-29.6,28.9h-29.6c-6.1,0-11.1-4.8-11.1-10.8V10.8c0-6,5-10.8,11.1-10.8h25.9      C286.6,0,299.8,13,299.8,28.9L299.8,28.9z M270.2,36.2c4.1,0,7.4-3.2,7.4-7.2c0-4-3.3-7.2-7.4-7.2h-14.8v14.5H270.2z" class="st1"></path><path d="M211,72.3c6.1,0,11.1,4.9,11.1,10.8c0,6-5,10.8-11.1,10.8h-33.3c-6.1,0-11.1-4.8-11.1-10.8V47V10.8      c0-6,5-10.8,11.1-10.8H211c6.1,0,11.1,4.9,11.1,10.8c0,6-5,10.8-11.1,10.8h-22.2v14.5H211c6.1,0,11.1,4.9,11.1,10.8      c0,6-5,10.8-11.1,10.8h-22.2v14.5H211z" class="st1"></path><path d="M144.4,72.3c6.1,0,11.1,4.9,11.1,10.8c0,6-5,10.8-11.1,10.8h-33.3c-6.1,0-11.1-4.8-11.1-10.8V47V10.8      c0-6,5-10.8,11.1-10.8h33.3c6.1,0,11.1,4.9,11.1,10.8c0,6-5,10.8-11.1,10.8h-22.2v14.5h22.2c6.1,0,11.1,4.9,11.1,10.8      c0,6-5,10.8-11.1,10.8h-22.2v14.5H144.4z" class="st1"></path><path d="M22.2,83.2c0,6-5,10.8-11.1,10.8C5,94,0,89.2,0,83.2V10.8C0,4.9,5,0,11.1,0C14.8,0,18,1.7,20,4.4l42.9,49.3      V10.8c0-6,5-10.8,11.1-10.8c6.1,0,11.1,4.9,11.1,10.8l0,72.3c0,3.1-1.3,6.1-3.9,8.3c-4.7,3.9-11.7,3.3-15.6-1.3L22.2,40.3V83.2z" class="st1"></path><path d="M355.9,0C382.5,0,404,21,404,47c0,26-21.5,47-48.1,47c-26.6,0-48.1-21-48.1-47C307.8,21,329.3,0,355.9,0      L355.9,0z M355.9,21.7C341.6,21.7,330,33,330,47c0,14,11.6,25.3,25.9,25.3c14.3,0,25.9-11.3,25.9-25.3      C381.8,33,370.2,21.7,355.9,21.7L355.9,21.7z" class="st1"></path></g></svg>