<?xml version="1.0" encoding="UTF-8" standalone="no"?>
<svg
   xmlns:dc="http://purl.org/dc/elements/1.1/"
   xmlns:cc="http://creativecommons.org/ns#"
   xmlns:rdf="http://www.w3.org/1999/02/22-rdf-syntax-ns#"
   xmlns:svg="http://www.w3.org/2000/svg"
   xmlns="http://www.w3.org/2000/svg"
   xmlns:sodipodi="http://sodipodi.sourceforge.net/DTD/sodipodi-0.dtd"
   xmlns:inkscape="http://www.inkscape.org/namespaces/inkscape"
   viewBox="0 0 3162 5600"
   height="5600"
   width="3162"
   xml:space="preserve"
   version="1.1"
   id="svg2"
   inkscape:version="0.91 r13725"
   sodipodi:docname="6.svg"><sodipodi:namedview
     pagecolor="#ffffff"
     bordercolor="#666666"
     borderopacity="1"
     objecttolerance="10"
     gridtolerance="10"
     guidetolerance="10"
     inkscape:pageopacity="0"
     inkscape:pageshadow="2"
     inkscape:window-width="1366"
     inkscape:window-height="709"
     id="namedview23"
     showgrid="false"
     showborder="true"
     inkscape:zoom="0.071136366"
     inkscape:cx="1439.8487"
     inkscape:cy="2782.3164"
     inkscape:window-x="0"
     inkscape:window-y="24"
     inkscape:window-maximized="1"
     inkscape:current-layer="svg2" /><metadata
     id="metadata8"><rdf:RDF><cc:Work
         rdf:about=""><dc:format>image/svg+xml</dc:format><dc:type
           rdf:resource="http://purl.org/dc/dcmitype/StillImage" /><dc:title></dc:title></cc:Work></rdf:RDF></metadata><defs
     id="defs6"><clipPath
       id="clipPath16"
       clipPathUnits="userSpaceOnUse"><path
         id="path18"
         d="m 0,5669.29 5669.29,0 L 5669.29,0 0,0 0,5669.29 Z"
         inkscape:connector-curvature="0" /></clipPath></defs><g
     transform="matrix(1.5226582,0,0,-1.5,-2620.5104,7186.7734)"
     id="g10"><g
       id="g12"><g
         clip-path="url(#clipPath16)"
         id="g14"><g
           transform="translate(1873.0693,1068.8994)"
           id="g20"><path
             id="path22"
             style="fill:#231f20;fill-opacity:1;fill-rule:nonzero;stroke:none"
             d="m 0,0 0,395.048 78.686,0 93.507,-279.713 c 8.623,-26.051 14.91,-45.541 18.864,-58.476 4.488,14.37 11.494,35.478 21.019,63.327 l 94.585,274.862 70.332,0 0,-395.048 -50.391,0 0,330.644 L 211.806,0 164.648,0 50.392,336.303 50.392,0 0,0 Z"
             inkscape:connector-curvature="0" /></g><path
           id="path24"
           style="fill:#231f20;fill-opacity:1;fill-rule:nonzero;stroke:none"
           d="m 2508.865,1463.947 52.278,0 0,-395.048 -52.278,0 0,395.048 z"
           inkscape:connector-curvature="0" /><g
           transform="translate(2818.3281,1068.8994)"
           id="g26"><path
             id="path28"
             style="fill:#231f20;fill-opacity:1;fill-rule:nonzero;stroke:none"
             d="m 0,0 0,395.048 53.625,0 207.494,-310.164 0,310.164 50.122,0 L 311.241,0 257.616,0 50.122,310.434 50.122,0 0,0 Z"
             inkscape:connector-curvature="0" /></g><g
           transform="translate(3567.8418,1223.8467)"
           id="g30"><path
             id="path32"
             style="fill:#231f20;fill-opacity:1;fill-rule:nonzero;stroke:none"
             d="m 0,0 0,46.35 167.343,0.269 0,-146.594 c -25.693,-20.48 -52.19,-35.886 -79.494,-46.214 -27.31,-10.329 -55.335,-15.496 -84.077,-15.496 -38.803,0 -74.062,8.308 -105.768,24.927 -31.709,16.614 -55.646,40.645 -71.815,72.084 -16.168,31.436 -24.251,66.561 -24.251,105.364 0,38.443 8.037,74.329 24.117,107.655 16.076,33.322 39.209,58.072 69.389,74.24 30.181,16.168 64.944,24.253 104.286,24.253 28.565,0 54.388,-4.628 77.474,-13.878 23.082,-9.255 41.184,-22.144 54.299,-38.67 13.111,-16.53 23.082,-38.088 29.912,-64.674 L 114.257,116.682 C 108.328,136.8 100.96,152.61 92.16,164.109 83.355,175.604 70.779,184.812 54.434,191.73 38.084,198.644 19.941,202.105 0,202.105 c -23.895,0 -44.556,-3.638 -61.979,-10.914 -17.427,-7.275 -31.486,-16.841 -42.172,-28.699 -10.691,-11.856 -18.998,-24.884 -24.927,-39.073 -10.063,-24.434 -15.09,-50.931 -15.09,-79.495 0,-35.212 6.063,-64.674 18.189,-88.387 12.126,-23.714 29.777,-41.322 52.952,-52.817 23.174,-11.499 47.785,-17.246 73.836,-17.246 22.635,0 44.732,4.353 66.29,13.069 21.558,8.712 37.903,18.009 49.044,27.891 L 116.143,0 0,0 Z"
             inkscape:connector-curvature="0" /></g><g
           transform="translate(1740.1406,4768.5361)"
           id="g34"><path
             id="path36"
             style="fill:#231f20;fill-opacity:1;fill-rule:nonzero;stroke:none"
             d="m 0,0 981.121,-988.805 0,-1028.82 -981.121,0 L 0,0 Z"
             inkscape:connector-curvature="0" /></g><g
           transform="translate(2816.6563,3759.7197)"
           id="g38"><path
             id="path40"
             style="fill:#231f20;fill-opacity:1;fill-rule:nonzero;stroke:none"
             d="M 0,0 0,-981.562 974.297,0 l 0,1008.816 L 0,0 Z"
             inkscape:connector-curvature="0" /></g><g
           transform="translate(3361.7109,3180.1533)"
           id="g42"><path
             id="path44"
             style="fill:#231f20;fill-opacity:1;fill-rule:nonzero;stroke:none"
             d="m 0,0 429.242,-429.242 0,865.297 L 0,0 Z"
             inkscape:connector-curvature="0" /></g></g></g></g></svg>