<?xml version="1.0" encoding="UTF-8" standalone="no"?>
<svg
   xmlns:dc="http://purl.org/dc/elements/1.1/"
   xmlns:cc="http://creativecommons.org/ns#"
   xmlns:rdf="http://www.w3.org/1999/02/22-rdf-syntax-ns#"
   xmlns:svg="http://www.w3.org/2000/svg"
   xmlns="http://www.w3.org/2000/svg"
   xmlns:sodipodi="http://sodipodi.sourceforge.net/DTD/sodipodi-0.dtd"
   xmlns:inkscape="http://www.inkscape.org/namespaces/inkscape"
   id="Layer_1"
   viewBox="-13.2 462.2 226.3 52.2"
   version="1.1"
   inkscape:version="0.91 r13725"
   sodipodi:docname="7.svg">
  <metadata
     id="metadata13">
    <rdf:RDF>
      <cc:Work
         rdf:about="">
        <dc:format>image/svg+xml</dc:format>
        <dc:type
           rdf:resource="http://purl.org/dc/dcmitype/StillImage" />
      </cc:Work>
    </rdf:RDF>
  </metadata>
  <defs
     id="defs11" />
  <sodipodi:namedview
     pagecolor="#ffffff"
     bordercolor="#666666"
     borderopacity="1"
     objecttolerance="10"
     gridtolerance="10"
     guidetolerance="10"
     inkscape:pageopacity="0"
     inkscape:pageshadow="2"
     inkscape:window-width="1366"
     inkscape:window-height="709"
     id="namedview9"
     showgrid="false"
     inkscape:zoom="1.3875386"
     inkscape:cx="113.15"
     inkscape:cy="26.1"
     inkscape:window-x="0"
     inkscape:window-y="24"
     inkscape:window-maximized="1"
     inkscape:current-layer="Layer_1" />
  <style
     id="style3">.st0{fill:#fff}</style>
  <path
     class="st0"
     d="M-5.7 514.4H39V484c-9.8 16-25.8 26.3-44.7 30.4z"
     id="path5"
     style="fill:#2b2b2b;fill-opacity:1" />
  <path
     class="st0"
     d="M-13.1 462.2H39c-6.2 26.4-26.9 46.2-52.2 52.2l.1-52.2zM52.4 495.5h6.1c.2 1.7.9 3 2 3.6 1.2.8 2.8 1.2 4.8 1.2 1.8 0 3.2-.3 4.1-1 .9-.6 1.4-1.6 1.4-2.8 0-1.9-2.6-3.4-7.8-4.5l-.2-.1-.7-.2c-3-.6-4.9-1.3-5.9-2-1.2-.6-2-1.6-2.4-2.8-.6-1-.9-2.4-.9-4 0-2.8 1-5.1 3-6.7s4.8-2.3 8.6-2.3c3.5 0 6.3.8 8.2 2.4 2 1.8 3 4.1 3.1 7h-3.5c-1.3 0-2.3-.6-2.9-1.8-.3-.6-.7-1.1-1.2-1.5-1-.8-2.5-1.1-4.3-1.1-1.7 0-3 .3-3.7 1-.9.6-1.3 1.5-1.3 2.7 0 1.6 1.7 2.7 5 3.5 1 .3 1.7.5 2.2.5 1 .3 2 .6 2.7.8.8.2 1.4.4 1.9.5.8.3 1.6.7 2.4 1 1.2.7 2.1 1.6 2.7 2.7.6 1.2 1 2.5 1 4 0 3.1-1 5.6-3.1 7.3-2.1 1.6-5 2.4-8.9 2.4-3.9 0-6.9-.8-8.9-2.5-2.2-1.5-3.4-4-3.5-7.3zM90.2 474.9h4.9l10.9 29.9h-6.5l-2-6.2H85.9l-1.9 6.2h-6.5l9.9-27.9c.4-1.3 1.4-2 2.8-2zm1.4 6l-4.2 12.7h8.3l-4.1-12.7zM111.8 504.8l-10.3-29.9h6.9l6.3 22.3 5.8-20.1c.3-1.5 1.3-2.3 3-2.3h4.4l-10.2 29.9-5.9.1zM130.3 504.8v-26.7c0-.9.3-1.6.9-2.2.6-.6 1.3-.9 2.2-.9H152v5.1h-15.6v6.4H148v2c0 .9-.3 1.6-.9 2.2-.6.6-1.3.9-2.2.9h-8.5v7.7H152v5.6l-21.7-.1zM155.9 504.8v-26.7c0-.9.3-1.6.9-2.2s1.3-.9 2.2-.9h8.6c4.6 0 8 1.2 10.3 3.6 2.3 2.5 3.4 6.3 3.4 11.3 0 2.7-.4 5.1-1.2 7.2-.9 2.2-2.1 3.9-3.6 5-1.3 1-2.6 1.7-4.1 2.1-1.4.4-3.5.6-6.3.6h-10.2zm6-5.4h5c2.8 0 4.9-.8 6.3-2.3 1.3-1.4 1.9-3.8 1.9-7.3 0-3.4-.6-5.8-1.8-7.4s-3-2.3-5.6-2.3H162l-.1 19.3zM184 489.9c0-4.9 1.3-8.7 3.8-11.6 2.7-2.8 6.3-4.3 10.7-4.3 4.3 0 7.9 1.4 10.7 4.3 2.6 2.9 3.9 6.7 3.9 11.6 0 4.8-1.3 8.6-3.9 11.5-2.7 2.8-6.2 4.2-10.7 4.2s-8.1-1.4-10.7-4.2c-2.5-2.8-3.8-6.7-3.8-11.5zm6.2 0c0 3.4.7 5.9 2.2 7.6 1.4 1.8 3.5 2.7 6.2 2.7 2.6 0 4.7-.9 6.2-2.7 1.5-1.9 2.3-4.4 2.3-7.6s-.8-5.8-2.3-7.7c-1.5-1.8-3.6-2.7-6.2-2.7-2.7 0-4.7.9-6.2 2.7-1.5 1.7-2.2 4.3-2.2 7.7z"
     id="path7"
     style="fill:#2b2b2b;fill-opacity:1" />
</svg>
