<?xml version="1.0" encoding="utf-8"?>
<!-- Generator: Adobe Illustrator 16.0.0, SVG Export Plug-In . SVG Version: 6.00 Build 0)  -->
<!DOCTYPE svg PUBLIC "-//W3C//DTD SVG 1.1//EN" "http://www.w3.org/Graphics/SVG/1.1/DTD/svg11.dtd">
<svg version="1.1" id="Layer_1" xmlns="http://www.w3.org/2000/svg" xmlns:xlink="http://www.w3.org/1999/xlink" x="0px" y="0px"
	 width="1734.803px" height="223.938px" viewBox="-1309.322 0 1734.803 223.938"
	 enable-background="new -1309.322 0 1734.803 223.938" xml:space="preserve">
<path fill="#323F46" d="M-924.482,38.08c-0.324,0.76-0.434,33.605-0.324,72.953l0.324,71.553l12.465,0.325
	c6.83,0.107,13.553,0,14.962-0.325l2.386-0.546v-37.293c0-36.964,0-37.283,2.166-36.748c1.3,0.324,2.929,1.841,3.795,3.471
	c0.758,1.515,3.358,5.313,5.637,8.458c2.279,3.032,4.875,6.613,5.747,7.909c0.866,1.299,4.553,6.4,8.132,11.387
	c3.578,4.979,7.265,10.074,8.129,11.376c6.289,9.106,11.491,16.152,13.876,18.761c4.66,4.986,10.297,3.359,14.959-4.119
	c1.085-1.848,5.419-7.922,9.648-13.771c4.117-5.746,11.274-15.608,15.72-22.006c12.467-17.67,16.367-22.544,17.453-21.465
	c0.542,0.538,1.084,17.561,1.193,37.725l0.326,36.862h28.184V37.32l-8.784-0.324l-8.778-0.327l-4.229,6.287
	c-2.275,3.473-4.445,6.503-4.768,6.831c-0.868,0.866-5.421,7.37-13.55,19.511c-4.228,6.287-9.869,14.426-12.58,18.112
	c-2.6,3.68-6.937,9.86-9.643,13.756c-14.747,21.578-18.539,26.562-20.058,26.562c-0.541,0-2.386-2.058-4.011-4.554
	c-3.685-5.852-19.51-29.162-22.222-32.629c-1.084-1.406-2.713-3.688-3.579-4.98c-0.866-1.411-3.577-5.208-5.96-8.568
	c-2.388-3.36-6.724-9.755-9.65-14.201c-3.036-4.445-6.938-10.192-8.672-12.576c-1.843-2.489-4.118-5.637-4.986-7.046
	c-3.902-5.961-4.986-6.397-14.093-6.397C-921.228,36.776-924.155,37.213-924.482,38.08z"/>
<path fill="#323F46" d="M-669.44,39.398c-1.301,1.627-2.278,3.361-2.278,4.011c0,0.977-2.276,5.746-14.636,31.659
	c-2.604,5.314-6.614,13.875-9,18.974c-10.408,22.116-15.72,33.5-18.649,39.573c-11.056,23.311-13.877,29.163-18.104,37.733
	c-2.603,5.31-4.445,10.08-4.122,10.619c1.085,1.521,30.141,1.193,32.201-0.43c0.868-0.651,2.711-3.472,3.905-6.18
	c1.189-2.711,3.359-7.377,4.66-10.303c1.411-3.032,3.252-5.961,4.122-6.725c1.3-0.975,10.299-1.3,33.935-1.405h32.31l2.71,4.335
	c1.517,2.388,2.711,4.552,2.711,4.876c0,0.218,1.734,4.123,3.795,8.677l3.794,8.129h15.72c9.217,0,15.831-0.43,16.264-1.081
	c0.322-0.65-1.845-6.284-4.88-12.796c-15.827-33.281-19.079-40.002-27.104-57.137c-3.146-6.608-7.48-15.83-9.757-20.598
	c-8.241-17.24-15.505-32.741-19.734-41.741c-2.276-5.095-4.662-9.974-5.095-10.841c-0.653-1.194-3.361-1.736-10.734-1.951
	C-666.838,36.472-667.274,36.58-669.44,39.398L-669.44,39.398z M-655.456,85.588c0,0.647,1.519,4.444,3.362,8.346
	c1.734,3.901,3.902,8.565,4.663,10.411c2.06,4.768,5.419,12.138,8.563,18.862c1.519,3.254,2.602,6.286,2.279,6.832
	c-0.76,1.298-41.418,1.081-42.178-0.224c-0.326-0.535,0.869-4.333,2.819-8.34c10.191-22.229,13.985-30.688,13.985-31.229
	c0-0.324,0.761-1.841,1.736-3.253C-658.384,84.176-655.456,83.31-655.456,85.588z"/>
<path fill="#323F46" d="M-562.299,37.507c-0.324,50.322,0.218,143.921,0.869,144.573c0.543,0.541,7.482,0.758,15.508,0.647
	l14.534-0.324l0.218-14.964c0.107-8.246,0.433-15.729,0.759-16.595c0.435-1.193,3.796-1.521,17.243-1.521h16.703l16.052,16.813
	l16.051,16.812h18.222c9.979,0,18.438-0.328,18.764-0.869c0.217-0.436-4.015-5.422-9.437-11.067
	c-5.531-5.746-13.884-14.421-18.546-19.52l-8.676-9.109l3.254-2.168c5.313-3.688,17.137-16.271,19.088-20.173
	c5.747-11.823,5.747-11.929,5.639-27.661c0-15.074-0.649-18.651-4.881-25.485c-0.542-0.866-1.409-2.603-1.952-3.796
	c-2.711-6.074-18.979-20.062-23.317-20.062c-0.65,0-1.736-0.438-2.277-0.979c-0.65-0.542-4.23-1.845-8.133-2.93
	c-6.075-1.732-12.476-2.06-46.312-2.383C-550.152,36.532-562.299,36.747-562.299,37.507z M-488.549,64.837
	c7.92,1.626,15.187,6.507,19.634,13.341c3.36,5.204,3.578,6.074,3.578,14.746c0,8.028-0.325,9.764-2.821,13.669
	c-3.362,5.204-8.023,9.326-14.316,12.689c-4.012,2.061-6.507,2.387-25.377,2.711c-12.8,0.328-21.476,0-22.125-0.65
	c-1.303-1.301-1.193-56.833,0.108-57.7C-528.133,62.665-494.729,63.534-488.549,64.837z"/>
<path fill="#323F46" d="M-422.567,37.428c-0.869,0.33-0.979,1.091-0.328,2.288c0.547,0.979,2.504,5.218,4.354,9.459
	c3.588,7.938,5.108,11.205,10.875,23.928c1.958,4.133,4.676,10.329,6.196,13.595c1.416,3.26,4.027,8.917,5.66,12.504
	c1.627,3.59,4.021,8.702,5.326,11.42c1.194,2.723,3.806,8.266,5.655,12.508c3.59,7.83,6.635,14.357,12.18,26.647
	c4.46,9.897,9.245,20.118,12.617,27.191l2.937,5.979h20.668l2.932-5.979c3.482-7.289,8.267-17.511,12.836-27.734
	c1.957-4.242,4.894-10.551,6.523-14.139c1.633-3.595,4.245-9.247,5.766-12.511c1.521-3.26,4.242-9.463,6.199-13.592
	c5.002-10.984,9.463-20.665,16.639-36.433c7.071-15.665,9.897-21.643,12.834-27.627c1.742-3.479,2.825-6.745,2.503-7.288
	c-0.328-0.542-7.834-0.978-16.75-0.978h-16.207l-2.174,4.568c-2.176,4.784-6.091,13.483-11.527,25.34
	c-1.633,3.591-3.807,8.484-4.896,10.878c-1.083,2.394-3.372,7.287-4.893,10.875c-1.634,3.587-3.809,8.48-4.895,10.874
	c-1.087,2.395-3.371,7.288-4.892,10.878c-1.634,3.59-3.809,8.481-4.898,10.874c-1.088,2.395-2.283,5.221-2.608,6.312
	c-0.327,1.195-1.415,1.848-2.503,1.632c-2.066-0.328-3.809-3.7-13.918-26.431c-1.525-3.59-3.809-8.482-4.895-10.876
	c-1.092-2.394-3.264-7.287-4.897-10.878c-2.827-6.309-7.287-16.095-11.419-25.012c-1.089-2.394-3.481-7.615-5.33-11.748
	l-3.369-7.287l-15.557,0.108C-414.305,36.776-421.804,37.104-422.567,37.428z"/>
<path fill="#323F46" d="M-253.415,37.45c-1.088,1.631-0.76,143.85,0.215,144.829c0.438,0.436,25.098,0.759,54.65,0.651l53.672-0.324
	l0.327-12.604l0.327-12.713l-2.826-0.651c-1.521-0.433-19.012-0.651-38.787-0.651c-33.136,0.109-36.29,0-37.484-1.739
	c-1.849-2.605-1.953-27.703-0.108-29.552c0.978-0.975,11.083-1.303,38.571-1.303h37.266l0.543-2.499
	c0.328-1.304,0.541-7.496,0.328-13.798l-0.328-11.406l-37.375-0.219c-20.645-0.109-38.137-0.543-38.896-0.76
	c-1.953-0.761-2.065-26.62,0-29.334c1.304-1.739,4.235-1.848,38.354-1.739c30.854,0,37.267-0.218,38.354-1.521
	c0.871-0.979,1.193-5.436,0.977-13.255l-0.325-11.847l-53.457-0.324C-231.795,36.585-253.092,36.908-253.415,37.45z"/>
<path fill="#323F46" d="M-117.405,37.131c-0.438,0.436-0.761,33.241-0.761,72.781v72.128l2.5,0.542
	c1.303,0.329,24.658,0.435,51.814,0.329l49.423-0.329l0.326-12.6l0.328-12.71l-2.823-0.651c-1.521-0.436-17.709-0.651-35.957-0.651
	c-18.36,0.106-33.566-0.218-34.003-0.541c-0.324-0.438-0.866-27.16-1.193-59.532l-0.543-58.873l-14.229-0.331
	C-110.237,36.588-116.974,36.806-117.405,37.131z"/>
<path fill="#323F46" d="M59.911,37.452c-9.932,1.882-15.155,3.138-16.928,3.971c-1.051,0.628-4.186,2.093-6.903,3.452
	c-2.817,1.359-6.375,3.134-7.836,3.971c-3.657,1.881-19.335,17.56-21.222,21.216c-0.832,1.465-2.61,5.02-3.966,7.839
	c-1.362,2.718-2.823,5.854-3.453,6.899C-1.44,86.997-3.114,95.044-4.37,104.03c-1.044,7.948,1.256,25.922,3.974,31.357
	c0.523,1.045,2.401,4.914,4.284,8.676c4.809,9.933,16.203,22.477,25.295,27.701c13.066,7.525,26.027,11.182,40.033,11.182
	c11.599,0.105,27.277-3.764,35.225-8.57c1.984-1.15,4.597-2.507,5.853-3.035c3.765-1.666,17.035-14.944,21.11-21.008
	c3.343-5.119,4.706-7.836,8.68-17.77c2.508-6.163,3.658-21.735,2.402-32.189c-1.356-10.872-1.78-12.228-7.633-24.248
	c-2.922-5.958-6.057-10.035-12.748-16.829c-4.914-4.913-10.138-9.616-11.706-10.452c-1.461-0.837-5.018-2.612-7.841-3.971
	c-2.719-1.359-5.854-2.824-6.896-3.452c-1.78-0.833-7.215-2.089-17.459-3.971C72.562,36.408,65.665,36.408,59.911,37.452z
	 M83.433,66.406c13.478,5.017,24.037,16.2,28.013,29.577c7.207,24.15-4.497,48.815-26.973,57.385c-7.944,3.028-22.26,3.028-30.2,0
	c-12.962-4.913-21.638-13.795-26.762-27.595c-2.612-7.002-2.612-24.877,0-31.146c5.957-14.53,14.006-22.891,27.071-28.013
	C60.645,64.104,77.058,63.999,83.433,66.406z"/>
<path fill="#323F46" d="M165.616,37.121c-0.424,0.428-0.748,21.37-0.748,46.565c0.113,37.104,0.43,46.673,1.601,50.074
	c0.847,2.337,1.594,4.891,1.594,5.636c0,1.486,2.657,8.08,4.358,10.843c0.535,0.852,1.487,2.765,2.017,4.147
	c0.642,1.382,4.575,5.95,8.827,10.206c7.975,7.976,17.755,13.712,26.789,15.626c12.016,2.447,17.542,3.084,23.388,2.556
	c6.276-0.535,18.503-3.297,21.691-4.894c6.803-3.297,11.484-5.954,12.655-7.124c0.74-0.74,2.229-1.912,3.188-2.656
	c2.763-2.02,10.949-11.693,12.015-14.142c0.529-1.169,1.381-2.868,1.806-3.72c2.552-4.36,3.399-6.697,5.422-14.99
	c2.229-8.509,2.229-10.95,2.017-53.583l-0.317-44.653l-13.714-0.317c-7.546-0.105-14.139,0.106-14.667,0.638
	c-0.643,0.638-0.961,17.649-0.854,39.019c0.106,43.48-0.747,52.306-5.528,61.13c-4.251,7.656-6.592,9.889-14.462,13.82
	c-18.707,9.25-41.248-1.704-46.459-22.857c-0.529-1.805-1.172-23.071-1.489-47.309l-0.635-44.123l-13.925-0.317
	C172.631,36.59,166.046,36.802,165.616,37.121z"/>
<path fill="#323F46" d="M358.554,37.183c-1.983,0.522-5.951,1.36-8.67,1.988c-2.822,0.522-5.64,1.567-6.269,2.191
	c-0.628,0.625-1.778,1.148-2.399,1.148c-2.301,0-10.66,6.166-14.529,10.762c-5.011,5.849-6.578,9.195-8.457,18.493
	c-3.868,18.386,4.278,33.953,22.04,42.312c4.392,1.983,8.358,3.655,8.987,3.655c0.627,0,3.346,0.73,6.058,1.462
	c2.611,0.836,7.524,2.301,10.758,3.24c18.708,5.118,21.63,6.371,25.605,10.864c4.489,5.225,2.292,15.986-4.18,20.27
	c-4.808,3.133-13.688,4.284-21.735,2.924c-6.688-1.256-7.837-1.774-12.851-6.789c-3.444-3.343-5.851-6.687-6.373-8.775
	c-0.312-1.881-1.461-3.763-2.401-4.285c-1.672-0.834-12.954,0.313-15.044,1.567c-0.521,0.313-3.763,1.044-7.312,1.464
	c-8.048,1.148-8.671,1.878-7.104,6.997c4.596,14.104,12.222,23.196,24.548,28.938c2.301,1.148,5.019,2.404,6.063,2.928
	c5.951,2.923,24.653,5.326,32.282,4.072c11.388-1.773,17.239-3.028,19.224-4.072c1.15-0.523,3.862-1.882,6.163-2.928
	c2.295-1.041,6.368-4.072,9.086-6.577c14.316-13.166,17.133-34.688,6.686-51.091c-3.445-5.432-12.432-12.745-15.673-12.745
	c-0.831,0-1.772-0.417-2.081-0.94c-0.318-0.521-3.976-1.987-8.155-3.239c-4.179-1.359-9.501-2.927-11.803-3.653
	c-2.301-0.735-7.003-2.196-10.449-3.135c-10.969-3.24-15.147-5.121-18.071-8.153c-2.408-2.507-2.824-3.862-2.824-8.564
	c0-6.685,2.408-10.553,8.465-13.477c6.058-2.926,12.016-3.24,18.178-1.044c7.312,2.612,11.909,6.791,15.149,13.477
	c1.462,3.135,2.923,5.746,3.346,5.746c0.312,0,2.295-0.42,4.385-0.938c2.089-0.526,7.525-1.779,12.12-2.719
	c4.597-1.044,8.987-1.982,9.716-2.194c2.194-0.628,1.362-4.808-2.613-12.743c-6.474-12.957-17.761-21.315-34.266-25.287
	C377.36,36.763,363.255,36.138,358.554,37.183z"/>
<polygon fill="#323F46" points="-1309.322,203.815 -1309.322,19.585 -1278.088,0 -1184.19,54.528 -1091.745,0 -1057.865,20.115 
	-1057.865,203.815 -1090.687,221.812 -1122.449,200.636 -1122.104,91.298 -1153.777,111.798 -1153.154,146.639 -1184.19,166.228 
	-1215.092,149.284 -1216.151,109.453 -1245.264,94.23 -1245.796,201.693 -1278.088,221.812 "/>
</svg>
